<?xml version="1.0" standalone="no"?>
<!DOCTYPE svg PUBLIC "-//W3C//DTD SVG 20010904//EN"
 "http://www.w3.org/TR/2001/REC-SVG-20010904/DTD/svg10.dtd">
<svg version="1.0" xmlns="http://www.w3.org/2000/svg"
 width="400.000000pt" height="400.000000pt" viewBox="0 0 400.000000 400.000000"
 preserveAspectRatio="xMidYMid meet">
<metadata>
Created by potrace 1.14, written by Peter Selinger 2001-2017
</metadata>
<g transform="translate(0.000000,400.000000) scale(0.100000,-0.100000)"
fill="#000000" stroke="none">
<path d="M2435 3370 c-46 -24 -75 -56 -73 -85 0 -16 -41 -118 -102 -250 -5
-11 -41 -94 -81 -185 -39 -91 -79 -181 -88 -200 -57 -120 13 -239 187 -321 48
-22 96 -44 107 -49 11 -5 61 -25 110 -45 50 -21 108 -46 130 -55 187 -83 234
-97 331 -98 71 -1 128 17 151 48 15 20 27 7 18 -20 -11 -35 -106 -73 -179 -73
-85 0 -160 26 -391 133 -22 10 -74 33 -115 50 -201 86 -276 128 -328 185 -53
58 -73 105 -74 176 0 22 4 45 9 52 5 6 20 37 33 67 12 30 33 78 45 105 13 28
44 100 70 160 25 61 52 124 60 141 48 104 75 167 75 172 0 4 -197 8 -438 8
-365 2 -448 4 -502 18 -64 16 -253 22 -330 11 -137 -19 -219 -42 -317 -86
-204 -94 -400 -301 -511 -539 -54 -116 -68 -148 -82 -195 -6 -22 -13 -46 -15
-53 -3 -7 -5 -14 -5 -17 0 -3 -7 -23 -15 -45 -29 -82 -74 -331 -90 -490 -10
-108 -15 -316 -8 -327 5 -6 20 -14 35 -18 46 -12 47 -9 188 505 17 63 34 117
37 120 3 3 2 -47 -3 -110 -4 -63 -7 -365 -7 -670 -1 -428 2 -567 12 -603 30
-104 129 -171 256 -171 71 0 116 15 188 66 l27 19 0 330 c0 309 1 330 17 327
17 -3 18 -28 21 -337 3 -374 -2 -353 77 -394 53 -28 163 -30 217 -3 66 32 130
113 142 178 3 13 5 134 5 270 l1 246 50 17 c27 9 96 49 152 89 136 95 134 95
142 39 6 -46 48 -123 94 -172 35 -38 79 -120 96 -181 10 -35 17 -99 18 -170 1
-98 4 -122 24 -161 81 -162 304 -199 432 -71 19 20 44 56 56 81 20 44 20 62
21 443 l1 397 40 39 40 38 -1 -425 c0 -291 3 -443 11 -479 16 -75 60 -131 128
-166 135 -70 295 -16 359 123 l25 52 1 566 c0 311 3 568 6 572 4 3 79 7 168 7
227 2 225 2 246 23 24 24 19 65 -15 133 -28 55 -28 58 -11 58 7 0 26 -21 43
-47 41 -65 74 -95 100 -88 44 10 47 -17 59 -590 12 -552 12 -561 28 -591 62
-119 230 -118 286 1 11 22 22 65 25 95 3 30 12 107 21 170 17 129 23 175 31
240 3 25 7 56 9 70 2 14 7 57 11 95 3 39 8 78 10 87 1 9 6 59 10 110 3 51 8
96 10 100 2 3 7 78 9 165 4 121 2 168 -8 199 -12 32 -175 414 -222 520 -31 67
-118 272 -142 334 -44 112 -122 188 -228 225 -41 14 -88 17 -260 17 -147 0
-219 4 -240 13 -213 90 -207 89 -300 92 -75 3 -97 0 -130 -17z m1049 -726 c14
-15 27 -34 28 -43 0 -9 2 -23 3 -31 2 -21 -35 -88 -54 -95 -37 -15 -64 -15
-92 2 -34 20 -55 76 -45 118 19 73 108 101 160 49z"/>
</g>
</svg>
