<?xml version="1.0" standalone="no"?>
<!DOCTYPE svg PUBLIC "-//W3C//DTD SVG 20010904//EN"
 "http://www.w3.org/TR/2001/REC-SVG-20010904/DTD/svg10.dtd">
<svg version="1.0" xmlns="http://www.w3.org/2000/svg"
 width="1061.000000pt" height="1061.000000pt" viewBox="0 0 1061.000000 1061.000000"
 preserveAspectRatio="xMidYMid meet">
<metadata>
Created by potrace 1.14, written by Peter Selinger 2001-2017
</metadata>
<g transform="translate(0.000000,1061.000000) scale(0.100000,-0.100000)"
fill="#000000" stroke="none">
<path d="M6556 9115 c-75 -21 -167 -71 -215 -118 -52 -50 -127 -174 -93 -153
4 2 14 1 20 -3 9 -6 -24 -91 -123 -315 -74 -169 -135 -309 -135 -312 0 -2 -13
-32 -29 -66 -61 -132 -91 -200 -91 -205 0 -5 -27 -68 -131 -298 -10 -22 -50
-114 -89 -205 -39 -90 -80 -183 -90 -205 -51 -113 -71 -161 -81 -197 -70 -262
189 -590 593 -749 28 -11 70 -28 92 -38 23 -11 113 -49 201 -86 198 -83 201
-84 302 -129 45 -20 85 -36 88 -36 3 0 24 -9 48 -19 55 -25 174 -76 532 -226
172 -72 284 -95 479 -100 116 -2 224 17 300 54 65 32 88 50 123 94 25 32 29
29 38 -34 7 -45 6 -46 -41 -87 -105 -90 -234 -132 -419 -138 -223 -7 -305 17
-745 211 -424 187 -753 332 -925 407 -261 113 -326 148 -435 231 -174 133
-289 304 -319 473 -10 56 -7 156 5 199 5 16 141 332 226 525 11 25 26 59 33
75 55 126 90 206 105 240 10 22 66 150 125 285 59 135 115 263 125 285 11 22
44 99 75 170 31 72 63 145 71 163 8 17 11 32 7 33 -5 1 -523 2 -1153 4 l-1145
2 -85 31 c-47 17 -105 34 -130 37 -24 4 -47 8 -50 10 -17 11 -204 20 -405 20
-234 0 -372 -7 -480 -24 -33 -6 -80 -13 -105 -16 -24 -4 -47 -8 -50 -10 -3 -2
-25 -6 -49 -10 -24 -3 -54 -10 -67 -15 -13 -5 -24 -8 -24 -5 0 2 -12 0 -27 -5
-16 -5 -75 -23 -132 -40 -381 -117 -725 -325 -1016 -615 -134 -134 -167 -171
-266 -300 -327 -428 -586 -996 -744 -1635 -32 -131 -81 -357 -90 -420 -4 -24
-8 -47 -10 -50 -2 -3 -6 -30 -10 -60 -4 -30 -8 -57 -10 -60 -3 -5 -11 -64 -21
-140 -2 -19 -6 -53 -10 -75 -3 -22 -7 -51 -9 -65 -2 -14 -7 -50 -10 -80 -3
-30 -8 -80 -12 -110 -8 -78 -11 -103 -18 -205 -13 -175 -14 -212 -19 -445 -5
-220 -4 -238 14 -267 26 -43 59 -63 108 -65 47 -1 85 20 110 62 10 16 35 91
56 167 22 76 86 302 143 503 57 201 106 374 108 385 3 11 14 49 24 85 26 86
101 350 106 374 8 37 28 91 36 100 8 9 4 -164 -6 -234 -2 -19 -7 -80 -11 -135
-3 -55 -8 -109 -10 -120 -3 -11 -5 -702 -5 -1535 -1 -1646 -3 -1577 55 -1718
65 -161 186 -274 371 -346 108 -42 187 -55 310 -51 159 4 250 39 466 177 l76
48 0 869 c0 478 4 874 7 880 11 17 51 13 77 -8 l23 -18 0 -881 1 -880 25 -27
c34 -37 135 -107 191 -133 159 -72 349 -77 522 -12 69 26 190 105 232 152 106
118 156 215 191 373 4 17 7 320 8 674 l2 643 24 18 c13 10 48 23 78 30 84 19
232 99 377 205 240 175 364 255 395 255 29 0 30 -2 31 -47 2 -177 58 -285 308
-588 78 -96 170 -281 205 -416 38 -144 38 -147 41 -429 2 -205 6 -279 19 -327
33 -126 74 -197 172 -299 129 -133 292 -205 493 -217 53 -4 177 13 236 31 204
63 385 234 459 434 17 47 22 68 35 148 4 25 7 499 6 1055 l0 1009 46 23 c49
25 119 94 144 144 9 16 17 29 20 29 2 0 3 -516 3 -1147 0 -1127 1 -1187 24
-1288 65 -293 355 -511 671 -504 327 7 594 223 675 544 13 52 15 259 16 1542
1 815 5 1485 9 1490 5 4 225 8 490 9 265 0 498 4 517 8 98 23 140 69 140 154
0 58 -21 122 -84 257 -57 122 -64 155 -32 155 29 0 49 -22 126 -140 124 -189
181 -237 270 -227 l46 6 28 -65 c33 -74 32 -73 41 -309 6 -176 9 -301 20 -730
15 -602 15 -628 30 -1420 9 -461 11 -502 34 -567 111 -321 534 -384 741 -112
48 63 76 135 85 219 5 47 21 169 30 225 2 14 7 43 9 65 7 50 15 111 21 150 3
17 7 55 10 85 4 30 8 62 10 70 2 8 7 40 10 70 3 30 7 66 10 80 2 14 7 43 9 65
11 86 27 211 31 235 2 14 6 50 9 80 4 30 8 64 10 75 3 18 14 105 21 175 1 14
8 70 14 125 7 55 14 120 17 145 2 25 7 61 9 80 5 42 15 128 21 190 2 25 8 86
14 135 5 50 12 119 15 155 3 36 7 85 10 110 5 55 16 188 21 250 1 25 6 92 11
150 9 131 10 541 1 595 -7 41 -20 83 -38 120 -5 11 -68 157 -140 325 -72 168
-135 314 -140 325 -5 11 -123 283 -261 605 -138 322 -278 647 -310 723 -33 76
-74 177 -90 225 -123 351 -421 602 -772 649 -23 3 -280 6 -572 7 l-530 2 -272
117 c-349 151 -410 167 -627 166 -102 0 -179 -6 -210 -14z m2616 -1913 c96
-43 152 -134 152 -247 0 -86 -23 -135 -99 -211 -59 -59 -110 -79 -185 -72 -89
9 -160 61 -202 147 -34 70 -32 197 5 267 63 123 203 172 329 116z"/>
</g>
</svg>
